<svg xmlns="http://www.w3.org/2000/svg" width="32" height="32" viewBox="0 0 32 32">
  <rect width="32" height="32" rx="4" fill="#1A1F71"/>
  <path d="M13.823 20.526H11.656L13.163 11.474H15.33L13.823 20.526ZM9.547 11.474L7.47 17.47L7.223 16.302L7.223 16.302L6.599 12.068C6.599 12.068 6.505 11.474 5.714 11.474H2.095L2.048 11.647C2.048 11.647 3.238 11.905 4.571 12.679L6.476 20.526H8.714L12.19 11.474H9.547ZM24.777 20.526H26.762L24.777 11.474H23.047C22.381 11.474 21.809 11.905 21.571 12.51L18.285 20.526H20.523L21 19.179H24.428L24.777 20.526ZM21.714 17.47L23.095 13.821L23.857 17.47H21.714ZM18.238 14.526L18.571 12.679C17.714 12.337 16.333 11.957 14.761 11.957C13.095 11.957 10.238 12.51 10.238 14.736C10.238 16.736 12.666 17.052 12.666 18.147C12.666 18.526 12.238 18.905 11.19 18.905C9.952 18.905 9.047 18.526 8.333 18.242L7.952 20.147C8.809 20.526 10.238 20.811 11.714 20.811C14.809 20.811 16.714 19.337 16.714 17.47C16.714 15.905 15.476 15.147 14.285 14.526C13.238 13.957 12.761 13.726 12.761 13.205C12.761 12.731 13.285 12.447 14.238 12.447C15.095 12.447 16.285 12.784 16.904 13.016L18.238 14.526Z" fill="white"/>
</svg> 